<?xml version="1.0" encoding="utf-8"?>
<!-- Generator: Adobe Illustrator 16.0.0, SVG Export Plug-In . SVG Version: 6.00 Build 0)  -->
<!DOCTYPE svg PUBLIC "-//W3C//DTD SVG 1.1//EN" "http://www.w3.org/Graphics/SVG/1.1/DTD/svg11.dtd">
<svg version="1.1" id="Слой_1" xmlns="http://www.w3.org/2000/svg" xmlns:xlink="http://www.w3.org/1999/xlink" x="0px" y="0px"
	 width="600.483px" height="287.278px" viewBox="0 176.876 600.483 287.278" enable-background="new 0 176.876 600.483 287.278"
	 xml:space="preserve">
<path fill="#154F98" d="M0,431.089v30.092h9.306v-20.987c0-0.987-0.396-1.779-0.396-2.37c0-0.202,0-0.396,0.197-0.396
	c0.198,0,0.595,0.987,0.792,1.384l11.483,22.371h7.722l10.691-22.17c0.199-0.396,0.595-1.391,0.792-1.391
	c0.199,0,0.199,0,0.199,0.202c0,0.591-0.396,1.383-0.396,2.37v20.987h9.305v-30.092H33.855l-7.919,16.83
	c-0.199,0.591-0.396,3.56-0.792,3.56c-0.396,0-0.396-2.969-0.789-3.56l-7.922-16.83H0L0,431.089z M97.803,446.135
	c0-14.455-0.396-15.442-19.994-15.442c-19.601,0-19.799,0.987-19.799,15.442c0,14.453,0.396,15.44,19.799,15.44
	C97.21,461.575,97.803,460.387,97.803,446.135z M67.118,446.135c0-7.722,0-7.722,10.691-7.722c10.491,0,10.689,0,10.689,7.722
	c0,7.524,0,7.723-10.689,7.723C67.316,453.856,67.118,453.659,67.118,446.135z M121.761,430.691
	c-17.422,0-18.413,1.385-18.413,15.442c0,14.252,0.991,15.44,18.413,15.44c17.818,0,18.413-1.584,18.413-12.077h-9.305
	c0,3.563-0.792,4.161-9.307,4.161c-9.106,0-9.106-0.2-9.106-7.721c0-7.525,0-7.723,9.106-7.723c8.514,0,9.307,0.988,9.307,4.156
	h9.305C140.175,432.275,139.383,430.691,121.761,430.691z M147.103,438.81h13.265v22.371h9.306V438.81h13.266v-7.721h-35.835
	L147.103,438.81L147.103,438.81z M230.651,446.135c0-14.455-0.594-15.442-19.995-15.442c-19.402,0-19.799,0.987-19.799,15.442
	c0,14.453,0.396,15.44,19.799,15.44C230.056,461.575,230.651,460.387,230.651,446.135z M199.965,446.135
	c0-7.722,0-7.722,10.69-7.722c10.491,0,10.689,0,10.689,7.722c0,7.524,0,7.723-10.689,7.723
	C200.162,453.856,199.965,453.659,199.965,446.135z M277.177,446.135c0-14.455-0.396-15.442-19.799-15.442
	c-19.599,0-19.796,0.987-19.796,15.442c0,14.453,0.396,15.44,19.796,15.44C276.781,461.575,277.177,460.387,277.177,446.135z
	 M246.689,446.135c0-7.722,0-7.722,10.689-7.722c10.691,0,10.691,0,10.691,7.722c0,7.524,0,7.723-10.691,7.723
	C246.689,453.856,246.689,453.659,246.689,446.135z M284.106,438.81h13.268v22.371h9.305V438.81h13.264v-7.721h-35.835
	L284.106,438.81L284.106,438.81z M328.058,431.089v30.092h9.306v-7.323h13.464c9.107,0,12.867-1.19,12.867-11.287
	c0-10.294-3.76-11.286-12.867-11.286h-22.77V431.089z M337.364,445.938v-7.129h13.464c1.98,0,3.563,0.792,3.563,3.563
	c0,2.773-1.583,3.564-3.563,3.564L337.364,445.938L337.364,445.938z M405.273,431.089h-26.926c-4.951,0-9.305,1.188-9.305,8.709
	c0,5.147,1.188,7.328,4.155,8.511c-3.164,1.391-4.155,2.184-4.155,6.146v6.728h9.305v-5.346c0-1.382,0.793-2.967,2.969-2.967h14.651
	v8.513h9.306V431.089z M395.967,438.81v6.137h-14.851c-1.978,0-2.771-0.791-2.771-2.969c0-2.18,0.793-2.967,2.771-2.967h14.851
	V438.81z M413.192,453.262h-1.584v10.893h9.306v-1.188c0-1.39,0.597-1.979,1.98-1.979h18.81c1.387,0,1.978,0.591,1.978,1.979v1.188
	h9.306v-10.893h-2.373v-22.375h-34.845C415.768,449.698,414.777,453.262,413.192,453.262z M441.306,453.262h-18.214
	c0.988-0.992,1.781-6.336,1.781-14.452h16.234v14.452H441.306z M510.006,461.181v-30.092h-14.057l-10.69,9.7l4.946,6.137
	l9.107-8.116h1.387v22.371H510.006L510.006,461.181z M541.683,443.166c-11.877,0.396-18.02,2.176-18.02,8.709v9.306h34.649v-7.722
	H532.97c0-1.98,0.594-2.377,8.713-2.773c13.463-0.791,17.028-1.585,17.028-10.688c0-7.922-1.981-9.307-17.028-9.307
	c-16.236,0-17.424,0.592-17.424,11.285h8.907c0-3.362,0-3.563,8.712-3.563c8.516,0,8.516,0.201,8.516,2.376
	C549.998,442.769,549.009,442.966,541.683,443.166z M579.696,442.569v6.733h3.565c8.711,0,8.711,0,8.711,2.175
	c0,2.182,0,2.182-8.711,2.182c-8.316,0-8.316,0-8.316-3.766h-8.711v3.766c0,7.325,5.939,7.722,16.828,7.722
	c15.838,0,17.422-1.188,17.422-9.902c0-3.364-0.791-4.948-3.367-5.539c1.584-0.791,2.971-2.378,2.971-5.94
	c0-7.527-0.989-9.502-17.024-9.502c-11.088,0-16.828,0.396-16.828,7.721v3.365h8.711c0-3.365,0-3.365,8.316-3.365
	c8.313,0,8.313,0,8.313,2.177s0,2.177-8.313,2.177h-3.566V442.569z"/>
<g id="_1677771545152">
	<polygon fill="#154F98" points="300.144,185.589 308.46,185.788 316.576,186.182 324.494,186.776 332.413,187.766 340.136,188.756 
		347.857,190.142 355.182,191.924 362.51,193.706 369.637,195.686 376.565,198.062 383.296,200.437 389.826,203.209 
		396.164,205.981 402.104,209.148 408.041,212.317 413.588,215.683 418.933,219.245 424.08,223.007 428.832,226.967 
		433.189,230.926 437.543,235.083 441.505,239.44 445.066,243.993 448.235,248.546 451.203,253.298 453.777,258.05 455.955,263 
		457.739,267.949 459.123,273.098 460.114,278.245 460.707,283.591 461.105,288.935 460.707,294.28 460.114,299.428 
		459.123,304.577 457.739,309.725 455.955,314.87 453.777,319.623 451.203,324.572 448.235,329.125 445.066,333.878 
		441.505,338.234 437.543,342.589 433.189,346.749 428.832,350.904 424.08,354.666 418.933,358.43 413.588,361.991 408.041,365.357 
		402.104,368.723 396.164,371.691 389.826,374.663 383.296,377.234 376.565,379.811 369.637,381.986 362.51,384.165 
		355.182,385.949 347.857,387.532 340.136,388.918 332.413,390.105 324.494,391.093 316.576,391.689 308.46,392.085 
		300.144,392.085 291.827,392.085 283.71,391.689 275.791,391.093 267.871,390.105 260.151,388.918 252.429,387.532 
		245.105,385.949 237.78,384.165 230.651,381.986 223.721,379.811 216.991,377.234 210.458,374.663 204.12,371.691 198.182,368.723 
		192.243,365.357 186.698,361.991 181.353,358.43 176.204,354.666 171.454,350.904 166.902,346.749 162.743,342.589 
		158.981,338.234 155.419,333.878 152.052,329.125 149.084,324.572 146.509,319.623 144.529,314.87 142.549,309.725 
		141.162,304.577 140.175,299.428 139.58,294.28 139.184,288.935 139.58,283.591 140.175,278.245 141.162,273.098 142.549,267.949 
		144.529,263 146.509,258.05 149.084,253.298 152.052,248.546 155.419,243.993 158.981,239.44 162.743,235.083 166.902,230.926 
		171.454,226.967 176.204,223.007 181.353,219.245 186.698,215.683 192.243,212.317 198.182,209.148 204.12,205.981 
		210.458,203.209 216.991,200.437 223.721,198.062 230.651,195.686 237.78,193.706 245.105,191.924 252.429,190.142 
		260.151,188.756 267.871,187.766 275.791,186.776 283.71,186.182 291.827,185.788 	"/>
	<path fill="#FEFEFE" d="M300.144,186.776c87.905,0,159.576,45.933,159.576,102.159c0,56.228-71.671,102.158-159.576,102.158
		c-87.907,0-159.577-45.931-159.577-102.158C140.568,232.708,212.237,186.776,300.144,186.776z"/>
	<path fill="#A6A39D" d="M348.847,195.686c-32.468,0-64.741,0.198-97.209,0c4.159-0.791,8.513-1.583,12.87-2.375
		c23.757-0.396,47.712-0.396,71.473,0C340.334,194.102,344.691,194.895,348.847,195.686z"/>
	<path fill="#A6A39D" d="M380.919,205.387l-161.155-0.198c0.789-0.397,1.779-0.792,2.771-0.991
		c51.672-1.583,103.743-0.791,155.416,0C378.943,204.595,379.932,204.991,380.919,205.387z"/>
	<path fill="#A6A39D" d="M401.511,215.286c-67.513,1.386-135.026,0.396-202.537-0.198c0.199-0.198,0.595-0.396,0.792-0.594
		c66.719-0.991,133.044-1.387,199.764-0.396C400.322,214.494,400.915,214.89,401.511,215.286z"/>
	<path fill="#A6A39D" d="M416.755,224.987c-22.966,0.198-211.249-0.198-232.827-0.198c0.199-0.197,0.595-0.396,0.79-0.594
		c77.413-0.792,153.237-0.99,230.651-0.396C415.768,224.393,416.361,224.592,416.755,224.987z"/>
	<path fill="#A6A39D" d="M424.677,234.886l-249.46-0.198l0.396-0.593c82.953-1.188,165.71-1.386,248.667-0.198L424.677,234.886z"/>
	<path fill="#A6A39D" d="M430.814,243.597l0.196,0.792c-87.31,2.377-174.227,1.387-261.536,0h-0.792l0.198-0.198
		C184.523,243.993,429.822,241.42,430.814,243.597z"/>
	<path fill="#A6A39D" d="M437.147,253.298l0.396,0.989c-22.37,0.396-272.227-1.188-274.998,0.595v-0.792
		C254.212,252.31,345.48,251.319,437.147,253.298z"/>
	<path fill="#A6A39D" d="M444.472,264.385l-0.396-0.396c-97.605,2.375-190.657,1.783-288.263-0.198
		c94.239-1.782,187.292-2.376,281.53-0.594C439.525,263.198,442.493,263,444.472,264.385z"/>
	<path fill="#A6A39D" d="M450.412,273.296c-0.196,0.395,0.396,0.593,0.396,0.791c-99.784,2.177-199.567,1.583-299.551-0.396
		c1.387,0,2.377-0.791,3.764-0.791C254.41,270.919,351.224,270.919,450.412,273.296z"/>
	<path fill="#A6A39D" d="M453.382,282.798c-110.275,4.753-200.557,4.753-302.123,0.595
		C196.4,282.403,425.269,282.602,453.382,282.798L453.382,282.798z"/>
	<path fill="#A6A39D" d="M453.577,293.489c-101.563,2.177-200.356,1.584-302.12-0.198l0,0c103.35-2.376,199.567-2.376,302.12-0.198
		C453.577,293.291,453.577,293.291,453.577,293.489z"/>
	<path fill="#A6A39D" d="M452.197,303.389c-101.171,1.979-199.173,1.188-300.738-0.396l0,0
		c101.565-2.179,199.767-2.179,300.738-0.396C452.197,302.993,452.197,303.189,452.197,303.389z"/>
	<path fill="#A6A39D" d="M449.029,313.288c-111.863,2.178-181.156,1.979-297.57-0.396c115.622-2.375,187.095-2.375,297.769-0.396
		C449.226,312.691,449.029,313.09,449.029,313.288z"/>
	<path fill="#A6A39D" d="M444.076,323.188c-96.221,1.386-191.846,1.386-288.263-0.396l0,0c98.001-2.181,191.844-2.181,288.657-0.396
		C444.472,322.593,444.275,322.792,444.076,323.188z"/>
	<path fill="#A6A39D" d="M162.347,332.294c92.657-1.585,183.331-1.78,275.791-0.396c-0.198,0.396-0.595,0.592-0.793,0.988
		c-92.063,1.387-182.538,1.188-274.8-0.396C162.545,332.493,162.545,332.493,162.347,332.294z"/>
	<path fill="#A6A39D" d="M428.634,342.786c-85.728,0.989-171.058,1.188-256.982-0.197c-0.197-0.198-0.197-0.198-0.396-0.397
		c86.518-1.385,171.851-1.58,258.367-0.394C429.23,342.191,428.832,342.391,428.634,342.786z"/>
	<path fill="#A6A39D" d="M182.344,351.695c78.994-1.188,157.197-1.387,235.995-0.198c-0.396,0.396-0.793,0.596-1.389,0.992
		c-78.003,0.79-155.811,0.989-233.814,0C182.938,352.29,182.542,352.093,182.344,351.695z"/>
	<path fill="#A6A39D" d="M196.796,361.598c69.096-0.795,137.997-0.992,206.893-0.199c-1.387,0.791-2.574,1.584-3.961,2.178
		c-57.215,0.396-151.26-0.594-201.546-1.188C197.786,361.991,197.389,361.794,196.796,361.598z"/>
	<path fill="#A6A39D" d="M380.725,372.484c-53.854,0.396-107.705,0.197-161.556-0.196c-0.594-0.199-1.386-0.597-1.981-0.794
		c55.832-0.396,111.266-0.791,167.098-0.396C383.098,371.494,381.907,371.891,380.725,372.484z"/>
	<path fill="#A6A39D" d="M348.451,382.186c-32.271,0.197-64.545,0.197-96.814,0c-2.178-0.594-4.357-0.988-6.532-1.584
		c37.813-0.594,75.628-1.188,113.443-0.791C355.182,380.602,351.817,381.395,348.451,382.186z"/>
	<path fill="#154F98" d="M282.918,349.32l96.222,38.605l82.556-37.419v-29.896l-106.91-6.137
		C333.998,333.085,305.886,341.6,282.918,349.32z"/>
	<polygon fill="#B2B3B3" points="183.532,296.658 183.928,297.647 259.358,321.999 260.547,317.645 	"/>
	<path fill="#FEFEFE" d="M272.03,184.203l8.316-1.783l2.178,6.534v13.661l0.987,2.177v30.094c0,1.188,1.188,2.376,1.188,3.564
		v36.033l2.971,3.762v50.286h-23.163v-50.286l2.968-3.762v-35.637l1.98-3.564v-29.697l1.387-2.771v-7.524l1.584-3.563
		L272.03,184.203z"/>
	<path fill="#154F98" d="M296.778,218.255c0,0.198-0.197,0.198-0.197,0.396c-2.377,6.138-4.753,12.274-7.326,18.215
		c3.562-0.198,6.731-0.99,8.711-4.95C298.955,229.938,299.55,220.434,296.778,218.255z M162.149,290.717l3.564-0.397l1.188,0.199
		c5.938-2.572,7.523-5.346,10.888-11.088c2.376-4.156,4.158-8.512,5.94-12.868l-3.96,0.198l0.595-1.979
		c1.188-0.198,2.376,0,3.564-0.396c0.396,0,0.792-0.396,1.186-0.792c0.396-0.989,0.792-1.979,1.188-2.969
		c0.198-1.584-0.198-3.168-1.383-3.168l-4.556-0.197l-0.396-2.375l7.126-0.199v-1.781l3.169-0.791l0.99,0.791v4.159
		c1.188,3.563,2.574,6.73,4.354,10.096c2.179,4.355,4.556,8.71,7.522,12.67c5.148,7.128,14.058,14.651,23.76,17.027l8.118,0.793
		c3.168-0.199,6.532-0.99,9.702-2.772c7.521-3.96,13.063-9.702,18.213-16.233c1.783-2.377,3.563-4.753,5.345-7.327v3.563
		l-2.97,3.764v2.177c-0.395,0.593-0.79,0.99-1.188,1.585c-6.533,7.917-13.463,13.66-21.185,16.035l22.372,2.376v16.632
		l-73.054-18.81v10.691l-6.733-0.396v-12.079L162.149,290.717z M284.303,236.866c0.396,0,0.793,0,1.387,0
		c2.376-5.544,4.753-11.087,6.93-16.63c0.396-0.792,0.594-1.783,0.988-2.575l-9.897,0.198v-5.345
		c3.168-0.396,7.327-0.792,9.897-0.99c6.338-0.396,9.504-19.007,2.181-18.413l-11.684,1.188l-1.582-8.118l25.937-0.791l1.187-7.327
		l2.178-1.187l5.742,1.187v2.179c0.988,6.73,2.374,13.066,4.157,19.401c3.763,12.87,9.105,25.145,16.034,36.429
		c9.504,15.642,20.988,29.104,34.847,40.587c24.948,20.59,57.613,31.479,89.289,36.032v35.834l-82.951,38.014l0.197-40.585
		l-91.074-23.56v-19.998l15.046,1.584v-36.032l-18.017,0.594v-7.919c3.168-0.197,7.72-0.594,10.098-1.386
		c2.573-0.792,4.157-8.513,3.96-10.888c-0.396-7.722-6.338-7.127-12.078-6.731c-0.594,1.386-1.386,2.969-1.979,4.355v-7.919
		C284.898,238.054,284.502,237.46,284.303,236.866z M167.691,290.32l17.226,1.782v-6.731h-3.958l-0.396-2.968
		c1.188-0.198,2.376,0,3.565-0.396c0.396,0,0.594-0.397,0.789-0.99v-3.168l0.396-0.99c-0.789-1.781-2.967-1.386-4.948-1.386
		C177.195,282.602,173.038,288.935,167.691,290.32z M191.451,292.896l2.571,0.196V266.76l0,0c0-0.198-0.197-0.396-0.197-0.593
		c-1.187-2.772-2.176-5.544-3.166-8.316v8.513l0.396,0.99v8.711c0,0.595,0.396,0.992,0.396,1.584V292.896L191.451,292.896z
		 M194.816,293.291l1.782,0.198c0-6.93,0-14.059,0-20.986c-0.594-1.188-1.188-2.573-1.782-3.761V293.291z M197.588,293.489
		l1.783,0.198c0-5.544,0-11.086,0-16.63c-0.596-0.992-1.188-1.979-1.783-3.169C197.588,280.422,197.588,286.956,197.588,293.489z
		 M200.162,293.886l1.781,0.196c0-4.354,0-8.71,0-13.065c-0.396-0.595-0.989-1.19-1.386-1.981c-0.198-0.196-0.396-0.395-0.396-0.593
		C200.162,283.591,200.162,288.736,200.162,293.886z M202.932,294.082l1.782,0.198c0-3.365,0-6.729,0-9.898
		c-0.594-0.791-1.188-1.386-1.782-2.177C202.932,286.165,202.932,290.124,202.932,294.082z M205.705,294.28l1.781,0.198
		c0-2.574,0-4.949,0-7.523c-0.594-0.593-1.188-1.188-1.781-1.783C205.705,288.342,205.705,291.312,205.705,294.28z M208.28,294.677
		l1.584,0.198c0-1.782,0-3.563,0-5.346c-0.594-0.396-1.188-0.989-1.584-1.386C208.28,290.32,208.28,292.5,208.28,294.677z
		 M211.052,294.875l1.581,0.198c0-1.188,0-2.375,0-3.563c-0.594-0.396-1.186-0.793-1.581-1.19
		C211.052,291.905,211.052,293.489,211.052,294.875z M213.624,295.271l1.584,0.199v-1.981c-0.595-0.396-0.99-0.593-1.584-0.989
		C213.624,293.291,213.624,294.28,213.624,295.271z M216.396,295.47l3.565,0.395c-1.188-0.593-2.377-1.188-3.565-1.783l0,0V295.47z
		 M322.318,306.557l2.971,0.395v-86.516c-2.575-6.336-4.753-12.869-6.732-19.403v21.976l1.188,3.564v27.916l2.575,4.356
		L322.318,306.557L322.318,306.557z M330.236,307.546l8.117,0.793c0-23.364,0-38.805,0-61.375
		c-2.968-4.752-5.542-9.899-8.117-15.047V307.546z M343.504,308.932l7.918,0.793c0-17.82,0-25.936,0-44.15
		c-2.774-3.366-5.545-6.93-7.918-10.494V308.932z M356.766,310.316l7.722,0.791c0-12.074,0-19.005,0-31.677
		c-2.771-2.572-5.344-5.146-7.722-7.72V310.316z M370.23,311.704l7.721,0.791v-22.569c-2.771-1.979-5.346-3.761-7.721-5.742V311.704
		z M383.494,313.09l11.283,1.188V300.42c-3.959-2.179-7.721-4.554-11.283-6.731V313.09z M400.322,314.87l35.043,3.764
		c-11.68-3.764-23.757-9.106-35.043-15.048V314.87z M181.353,273.494c0.991-2.378,1.98-4.752,2.773-7.129h0.198
		c1.581,0,1.383,4.554,0.986,5.346C184.324,273.494,183.136,273.494,181.353,273.494z"/>
	<path fill="#154F98" d="M300.144,194.696c81.171,0,147.299,42.368,147.299,94.238c0,14.059-4.949,27.519-13.659,39.598l9.106,1.188
		c8.711-12.474,13.66-26.331,13.66-40.983c0-55.038-70.284-99.98-156.21-99.98c-5.742,0-11.483,0.198-17.027,0.594
		c0.593,1.781,0.989,3.761,1.584,5.741C289.849,194.895,294.995,194.696,300.144,194.696z M415.173,347.54
		c-10.295,8.117-22.571,15.244-36.431,20.983v6.729c22.769-8.513,41.972-20.588,55.438-35.039L415.173,347.54z M363.496,373.872
		c-19.201,5.938-40.784,9.104-63.353,9.104c-81.173,0-147.301-42.365-147.301-94.24c0-44.942,49.696-82.755,115.82-92.061
		c0-0.198,0-0.396,0.197-0.594v-0.792l0.198-0.593c0.198-1.386,0.595-2.772,0.792-3.96c-71.67,9.106-126.115,49.693-126.115,98
		c0,55.039,70.283,99.984,156.407,99.984c25.935,0,50.683-4.16,72.263-11.484L363.496,373.872z M282.722,195.488
		c0.196,0,0.196,0,0.393,0c-0.196-0.595-0.196-1.188-0.393-1.782V195.488z"/>
	<polygon fill="#FEFEFE" points="377.949,361.991 456.154,331.503 177.789,293.886 	"/>
	<path fill="#A6A39D" d="M225.9,300.022v6.533l-16.828-4.354C214.812,303.389,220.357,302.993,225.9,300.022z M342.315,322.99
		v13.462l-7.721-1.981v-20.392C336.967,317.246,339.54,320.216,342.315,322.99z M347.857,337.837v-9.501
		c6.336,5.938,13.069,10.887,20.396,14.648L347.857,337.837z M329.048,306.95c0,10.495,0,15.245,0,26.135l-7.92-1.979V295.47
		C323.703,299.428,326.278,303.189,329.048,306.95z M315.983,286.559c0,18.214,0,24.946,0,43.162l-7.918-1.979v-56.426
		c2.176,4.553,4.551,9.107,6.929,13.464C315.19,285.372,315.586,285.966,315.983,286.559z M302.718,259.634
		c0,25.144,0,41.378,0,66.72l-8.119-1.979v-86.518C297.173,245.181,299.747,252.506,302.718,259.634z M289.65,221.226V322.99
		l-3.96-0.991v-43.556l-2.968-3.761v-36.033c0-1.188-1.188-2.376-1.188-3.565v-30.092l-0.99-2.178v-18.016
		C283.314,197.072,286.284,209.148,289.65,221.226z M292.421,222.215c4.16,13.463,9.305,26.728,15.245,39.399
		c16.038,34.251,37.024,59.199,71.276,74.639v9.702l0,0v34.053l-196.005-79.391v12.273c-2.178-0.199-5.148-0.396-8.117-0.199
		v-15.243l-12.869-5.147v-1.981h0.197c5.741-2.968,7.127-5.74,9.503-11.877c2.179-5.147,3.367-10.494,4.553-15.839v-3.366
		l0.792-1.782l-0.198-4.752l4.356-0.592l0.594,0.592v6.732v0.792c0.595,4.157,1.188,8.116,2.377,12.274
		c1.383,5.147,3.165,9.702,5.74,14.056l0,0l0,0c0.792,1.19,1.386,2.375,2.376,3.367c2.771,3.563,6.73,7.722,11.282,9.107
		c1.584,0.395,3.367,1.188,4.952,1.386c5.146,0.791,9.899,0.594,14.649-2.179c6.93-3.96,11.287-10.097,16.037-16.233
		c7.328-12.275,13.067-24.946,17.422-38.014v-0.199l0.198-0.197c5.94-17.62,9.899-36.032,13.465-54.246l-0.198-8.711l5.938-1.783
		l4.753,1.189v0.594C284.106,192.32,288.066,208.356,292.421,222.215z M262.527,316.059v-37.417l2.969-3.762v-35.638l1.979-3.564
		V215.88c-1.188,5.148-2.572,10.492-3.958,15.64c-0.99,3.563-1.979,6.93-2.97,10.295v73.65L262.527,316.059z M256.586,252.31v62.167
		l-4.354-1.188c0-18.81,0-31.281,0-50.09C253.816,259.634,255.4,256.071,256.586,252.31z M249.063,270.522
		c0,15.642,0,25.342,0,42.169l-4.75-1.188c0-13.066,0-18.807,0-31.48C245.897,276.661,247.479,273.494,249.063,270.522z
		 M241.342,284.778c0,10.295,0,14.453,0,25.738l-5.146-1.387c0-7.721,0-10.097,0-17.62c1.782-1.981,3.364-4.158,5.146-6.536
		C241.144,284.975,241.144,284.778,241.342,284.778z M233.621,294.28c0,5.544,0,8.117,0,14.453l-5.741-1.584v-8.313
		c0.198-0.198,0.396-0.198,0.595-0.396C230.452,297.25,232.036,295.667,233.621,294.28z M204.913,301.21l-10.891-2.771v-3.762
		c2.376,2.179,4.951,4.158,7.921,5.346C202.932,300.419,203.922,300.814,204.913,301.21z M192.639,298.042l-2.771-0.792
		c0-2.574,0-5.148,0-7.721c0.197,0.198,0.197,0.198,0.197,0.396c0.792,1.188,1.585,2.177,2.575,3.169L192.639,298.042
		L192.639,298.042z M188.678,297.052l-3.168-0.791v-15.244c0.792,2.177,1.979,4.553,3.168,6.534
		C188.678,290.717,188.678,293.886,188.678,297.052z M184.523,296.063l-1.781-0.396v-16.038c0-0.593-0.596-1.186-0.596-1.78v-8.91
		c0.199,0.991,0.396,2.177,0.596,3.168c0.396,2.178,0.988,4.355,1.781,6.336V296.063z M174.623,293.489l-0.792-0.198v-18.808l0,0
		c0.99-3.169,1.782-6.534,2.374-9.702v2.771l-0.592,1.189v9.107l-0.989,1.78L174.623,293.489L174.623,293.489z M173.237,293.093
		l-0.792-0.196c0-4.753,0-9.702,0-14.651c0.198-0.793,0.595-1.584,0.792-2.377V293.093z M171.85,292.698l-0.792-0.198
		c0-3.764,0-7.327,0-11.088c0.198-0.593,0.594-1.188,0.792-1.783C171.85,283.987,171.85,288.342,171.85,292.698z M170.464,292.302
		l-0.792-0.199c0-2.771,0-5.543,0-8.117c0.198-0.395,0.594-0.989,0.792-1.384C170.464,285.768,170.464,289.133,170.464,292.302z
		 M169.078,292.103l-0.792-0.198c0-1.979,0-3.761,0-5.74c0.196-0.396,0.594-0.793,0.792-1.19
		C169.078,287.154,169.078,289.728,169.078,292.103z M167.89,291.708l-0.792-0.198c0-1.386,0-2.576,0-3.959
		c0.197-0.198,0.593-0.595,0.792-0.992C167.89,288.342,167.89,289.926,167.89,291.708z M166.506,291.312l-0.792-0.198v-2.377l0,0
		c0.198-0.196,0.594-0.395,0.792-0.791C166.506,289.133,166.506,290.32,166.506,291.312z M165.12,290.915l-2.575-0.595
		c0.792-0.196,1.782-0.593,2.575-1.188V290.915z M181.749,265.574v1.781l0.396,0.792
		C181.948,267.157,181.948,266.365,181.749,265.574z"/>
</g>
</svg>
