<?xml version="1.0" encoding="UTF-8"?>
<!DOCTYPE svg PUBLIC "-//W3C//DTD SVG 1.1//EN" "http://www.w3.org/Graphics/SVG/1.1/DTD/svg11.dtd">
<!-- Creator: CorelDRAW X8 -->
<svg xmlns="http://www.w3.org/2000/svg" xml:space="preserve" width="1713px" height="1132px" version="1.1" style="shape-rendering:geometricPrecision; text-rendering:geometricPrecision; image-rendering:optimizeQuality; fill-rule:evenodd; clip-rule:evenodd"
viewBox="0 0 1814 1199"
 xmlns:xlink="http://www.w3.org/1999/xlink">
 <defs>
  <style type="text/css">
   <![CDATA[
    .fil1 {fill:#FEFEFE}
    .fil4 {fill:#B2B3B3}
    .fil0 {fill:#154F98}
    .fil3 {fill:#95BD0C}
    .fil2 {fill:#A6A39D}
   ]]>
  </style>
 </defs>
 <g id="Layer_x0020_1">
  <metadata id="CorelCorpID_0Corel-Layer"/>
  <polygon class="fil0" points="907,38 945,39 982,41 1018,44 1055,48 1090,53 1125,59 1159,67 1192,75 1225,85 1257,95 1287,106 1317,119 1346,132 1374,146 1401,160 1426,176 1451,192 1474,210 1496,227 1516,246 1536,265 1553,285 1570,305 1585,326 1598,348 1610,370 1620,392 1628,415 1635,439 1639,462 1642,486 1643,511 1642,535 1639,559 1635,583 1628,607 1620,630 1610,652 1598,674 1585,696 1570,717 1553,737 1536,757 1516,776 1496,794 1474,812 1451,829 1426,846 1401,861 1374,876 1346,890 1317,903 1287,916 1257,927 1225,937 1192,947 1159,955 1125,963 1090,969 1055,974 1018,978 982,981 945,983 907,984 869,983 832,981 795,978 759,974 724,969 689,963 655,955 621,947 589,937 557,927 526,916 497,903 468,890 440,876 413,861 388,846 363,829 340,812 318,794 297,776 278,757 260,737 244,717 229,696 216,674 204,652 194,630 186,607 179,583 174,559 172,535 171,511 172,486 174,462 179,439 186,415 194,392 204,370 216,348 229,326 244,305 260,285 278,265 297,246 318,227 340,210 363,192 388,176 413,160 440,146 468,132 497,119 526,106 557,95 589,85 621,75 655,67 689,59 724,53 759,48 795,44 832,41 869,39 "/>
  <path class="fil1" d="M907 44c402,0 731,210 731,467 0,257 -329,467 -731,467 -403,0 -731,-210 -731,-467 0,-257 328,-467 731,-467z"/>
  <path class="fil2" d="M1130 84c-149,1 -297,1 -445,0 19,-4 39,-7 59,-11 109,-1 218,-1 327,1 20,3 40,6 59,10z"/>
  <path class="fil3" d="M1276 129l-737 -1c4,-2 8,-3 12,-5 237,-7 475,-3 711,0 5,2 10,4 14,6z"/>
  <path class="fil3" d="M1371 174c-309,5 -618,1 -927,-1 1,-1 2,-1 3,-2 306,-5 610,-6 915,-2 3,1 6,3 9,5z"/>
  <path class="fil3" d="M1441 219c-105,0 -968,-1 -1066,-1 1,-1 2,-2 3,-3 354,-4 702,-5 1056,-1 2,1 4,3 7,5z"/>
  <path class="fil3" d="M1477 263l-1142 -1 2 -2c379,-6 758,-7 1138,-1l2 4z"/>
  <path class="fil3" d="M1505 304l1 3c-400,11 -797,7 -1197,0l-4 0 1 -1c71,-1 1195,-12 1199,-2z"/>
  <path class="fil3" d="M1534 348l2 4c-103,2 -1247,-5 -1259,3l0 -4c419,-8 838,-12 1257,-3z"/>
  <path class="fil3" d="M1567 399l-2 -2c-446,11 -872,8 -1319,-1 431,-8 857,-10 1289,-3 10,0 24,-1 32,6z"/>
  <path class="fil3" d="M1595 439c-1,2 2,3 2,4 -457,10 -914,7 -1371,-2 6,0 11,-4 17,-4 454,-8 897,-8 1352,2z"/>
  <path class="fil3" d="M1609 483c-505,22 -918,22 -1383,3 206,-5 1253,-4 1383,-4 0,1 0,1 0,1z"/>
  <path class="fil3" d="M1609 532c-465,10 -917,8 -1383,-1l0 0c473,-11 914,-11 1384,-1 0,1 -1,1 -1,2z"/>
  <path class="fil3" d="M1602 577c-462,9 -911,6 -1376,-1l0 0c465,-10 914,-10 1377,-2 0,1 0,2 -1,3z"/>
  <path class="fil3" d="M1588 623c-511,10 -829,9 -1362,-2 529,-11 857,-11 1364,-2 -1,1 -1,2 -2,4z"/>
  <path class="fil3" d="M1566 668c-440,6 -878,6 -1319,-2 0,0 0,0 0,-1 448,-9 878,-9 1321,-1 0,1 -1,2 -2,4z"/>
  <path class="fil3" d="M276 710c424,-8 839,-8 1263,-2 -2,2 -3,3 -4,5 -421,6 -835,5 -1257,-2 -1,0 -1,-1 -2,-1z"/>
  <path class="fil3" d="M1495 757c-393,5 -784,6 -1177,-1 0,0 -1,-1 -2,-1 396,-7 787,-7 1183,-2 -1,2 -3,3 -4,4z"/>
  <path class="fil3" d="M367 799c362,-6 720,-6 1081,-1 -2,1 -4,3 -6,4 -357,4 -714,5 -1071,0 -1,-1 -2,-2 -4,-3z"/>
  <path class="fil3" d="M434 843c316,-4 631,-5 948,-1 -6,4 -13,7 -19,11 -262,1 -692,-3 -922,-6 -2,-1 -5,-2 -7,-4z"/>
  <path class="fil3" d="M1276 893c-247,2 -493,2 -740,0 -3,-2 -6,-3 -9,-4 255,-2 510,-4 765,-2 -5,2 -11,4 -16,6z"/>
  <path class="fil3" d="M1128 938c-148,0 -296,0 -443,-1 -11,-2 -21,-4 -31,-6 174,-3 347,-5 520,-4 -15,4 -31,7 -46,11z"/>
  <path class="fil0" d="M0 1099l0 91 28 0 0 -64c0,-3 -1,-5 -1,-7 0,-1 0,-1 0,-1 1,0 2,3 3,4l35 68 23 0 32 -68c1,-1 2,-4 3,-4 0,0 0,0 0,1 0,2 -1,4 -1,7l0 64 28 0 0 -91 -48 0 -24 51c0,2 -1,11 -2,11 -1,0 -1,-9 -2,-11l-24 -51 -50 0zm295 45c0,-43 -2,-47 -60,-47 -59,0 -60,4 -60,47 0,44 1,47 60,47 58,0 60,-3 60,-47zm-92 0c0,-23 0,-23 32,-23 32,0 32,0 32,23 0,23 0,23 -32,23 -32,0 -32,0 -32,-23zm164 -47c-53,0 -55,5 -55,47 0,43 2,47 55,47 54,0 56,-5 56,-36l-28 0c0,11 -3,12 -28,12 -27,0 -27,0 -27,-23 0,-22 0,-23 27,-23 26,0 28,3 28,13l28 0c0,-31 -2,-37 -56,-37zm77 25l40 0 0 68 28 0 0 -68 40 0 0 -23 -108 0 0 23zm252 22c0,-43 -2,-47 -60,-47 -59,0 -60,4 -60,47 0,44 1,47 60,47 58,0 60,-3 60,-47zm-92 0c0,-23 0,-23 32,-23 32,0 32,0 32,23 0,23 0,23 -32,23 -32,0 -32,0 -32,-23zm233 0c0,-43 -2,-47 -60,-47 -59,0 -60,4 -60,47 0,44 1,47 60,47 58,0 60,-3 60,-47zm-92 0c0,-23 0,-23 32,-23 32,0 32,0 32,23 0,23 0,23 -32,23 -32,0 -32,0 -32,-23zm113 -22l40 0 0 68 28 0 0 -68 40 0 0 -23 -108 0 0 23zm132 -23l0 91 28 0 0 -23 41 0c27,0 38,-3 38,-34 0,-31 -11,-34 -38,-34l-69 0zm28 45l0 -22 41 0c6,0 10,2 10,11 0,9 -4,11 -10,11l-41 0zm205 -45l-81 0c-15,0 -28,3 -28,26 0,16 4,22 13,26 -10,4 -13,7 -13,18l0 21 28 0 0 -17c0,-4 2,-9 9,-9l44 0 0 26 28 0 0 -91zm-28 23l0 19 -44 0c-6,0 -9,-3 -9,-9 0,-7 3,-10 9,-10l44 0zm52 44l-5 0 0 33 28 0 0 -4c0,-4 2,-5 6,-5l57 0c4,0 6,1 6,5l0 4 28 0 0 -33 -7 0 0 -67 -105 0c0,56 -3,67 -8,67zm85 0l-55 0c3,-3 6,-19 6,-44l49 0 0 44zm208 24l0 -91 -43 0 -32 29 15 19 27 -25 5 0 0 68 28 0zm95 -54c-36,1 -54,6 -54,26l0 28 104 0 0 -24 -76 0c0,-6 2,-7 26,-8 40,-3 52,-5 52,-33 0,-23 -6,-28 -52,-28 -49,0 -53,2 -53,35l27 0c0,-10 0,-11 26,-11 25,0 25,0 25,8 0,6 -2,6 -25,7zm115 -2l0 20 11 0c27,0 27,0 27,7 0,6 0,6 -27,6 -25,0 -25,0 -25,-11l-26 0 0 11c0,23 18,24 51,24 48,0 53,-4 53,-30 0,-10 -3,-15 -10,-17 4,-2 9,-7 9,-18 0,-23 -4,-29 -52,-29 -33,0 -51,2 -51,24l0 10 26 0c0,-10 0,-10 25,-10 25,0 25,0 25,6 0,7 0,7 -25,7l-11 0z"/>
  <path class="fil0" d="M828 788l440 176 378 -171 0 -136 -489 -28c-95,84 -224,123 -329,159z"/>
  <polygon class="fil4" points="373,546 375,551 720,662 726,642 "/>
  <path class="fil1" d="M779 31l38 -7 10 30 0 63 5 10 0 138c0,5 5,11 5,16l0 165 13 17 0 231 -106 0 0 -230 13 -18 0 -163 9 -17 0 -136 7 -12 0 -34 6 -17 0 -36z"/>
  <path class="fil0" d="M892 187c0,1 -1,1 -1,2 -11,28 -22,56 -34,83 17,-1 31,-5 40,-23 4,-8 7,-51 -5,-62zm-617 332l16 -2 5 0c28,-11 35,-24 50,-51 11,-19 19,-39 27,-59l-18 1 3 -9c5,-1 10,-1 16,-2 1,0 3,-2 5,-4 1,-4 3,-9 5,-13 1,-7 -1,-14 -7,-14l-20 -1 -2 -11 33 -1 0 -9 14 -3 4 3 0 19c6,16 12,31 20,46 10,21 21,40 34,59 24,32 64,66 109,78l36 4c15,-1 30,-5 45,-13 34,-18 59,-44 83,-74 8,-11 17,-22 24,-34l0 17 -13 18 0 9c-2,3 -4,5 -6,8 -30,36 -62,62 -97,73l103 10 0 76 -334 -86 0 48 -31 -1 1 -55 -105 -27zm559 -246c2,0 4,0 6,0 12,-25 22,-50 32,-76 1,-4 3,-8 5,-12l-45 1 0 -24c14,-1 33,-3 45,-4 28,-2 43,-87 9,-84l-53 6 -8 -37 119 -4 5 -33 10 -6 26 6 0 10c4,30 11,60 19,89 17,59 42,115 74,167 43,71 95,133 159,186 115,94 264,144 409,165l0 165 -380 174 1 -186 -417 -108 0 -92 69 7 0 -165 -82 3 0 -36c15,-2 35,-3 46,-7 12,-3 19,-39 18,-50 -2,-35 -29,-32 -55,-31 -3,7 -6,13 -9,20l0 -36c0,-3 -1,-5 -3,-8zm-533 245l79 8 0 -31 -19 0 -1 -13c5,-1 11,0 16,-2 1,0 3,-2 4,-4l0 -15 2 -5c-4,-9 -14,-7 -23,-6 -15,32 -34,61 -58,68zm109 11l11 1 0 -120 0 0c0,-1 0,-2 -1,-2 -5,-13 -10,-26 -14,-39l0 39 2 4 0 41c0,2 2,4 2,7l0 69zm15 2l9 1c0,-32 0,-64 0,-96 -3,-6 -6,-12 -9,-18l0 113zm12 1l9 1c0,-25 0,-51 0,-76 -3,-5 -6,-10 -9,-14 0,29 0,59 0,89zm13 1l8 1c0,-20 0,-39 0,-59 -2,-3 -4,-6 -6,-9 -1,-1 -2,-2 -2,-3 0,23 0,47 0,70zm12 2l8 1c0,-16 0,-31 0,-46 -3,-3 -5,-7 -8,-10 0,18 0,37 0,55zm12 1l8 1c0,-11 0,-23 0,-34 -3,-3 -5,-6 -8,-8 0,13 0,27 0,41zm13 1l7 1c0,-8 0,-16 0,-24 -2,-2 -5,-5 -7,-7 0,10 0,20 0,30zm12 2l7 0c0,-5 0,-10 0,-16 -2,-1 -5,-3 -7,-5 0,7 0,14 0,21zm12 1l7 1 0 -9c-2,-2 -4,-4 -7,-5 0,4 0,9 0,13zm12 1l16 2c-5,-3 -10,-5 -16,-8 0,0 0,0 0,0l0 6zm485 51l14 2 0 -397c-12,-29 -22,-59 -31,-89l0 101 6 17 0 127 11 20 0 219zm37 4l37 4c0,-107 0,-178 0,-281 -13,-22 -26,-45 -37,-69l0 346zm61 7l36 3c0,-81 0,-118 0,-202 -13,-15 -25,-31 -36,-48l0 247zm61 6l35 4c0,-56 0,-87 0,-145 -12,-12 -24,-23 -35,-36l0 177zm60 6l36 4 0 -104c-13,-8 -25,-17 -36,-26l0 126zm61 7l52 5 0 -63c-18,-10 -36,-21 -52,-31l0 89zm77 8l161 17c-53,-18 -109,-42 -161,-69l0 52zm-1002 -190c5,-11 9,-22 13,-33l1 0c7,0 6,21 4,25 -4,9 -9,8 -18,8z"/>
  <path class="fil0" d="M907 80c371,0 674,194 674,431 0,65 -23,126 -63,181l42 6c40,-57 62,-120 62,-187 0,-252 -321,-458 -715,-458 -26,0 -52,1 -78,3 3,9 5,17 7,26 24,-1 47,-2 71,-2zm527 699c-47,38 -103,70 -167,96l0 31c104,-39 192,-95 254,-161l-87 34zm-237 121c-88,27 -186,42 -290,42 -371,0 -674,-194 -674,-431 0,-206 227,-379 530,-421 0,-1 0,-2 0,-3l0 -3 2 -4c1,-6 2,-12 3,-18 -328,42 -577,227 -577,449 0,252 322,457 716,457 119,0 232,-18 331,-52l-41 -16zm-370 -817c1,0 1,0 2,0 -1,-3 -1,-5 -2,-8l0 8z"/>
  <polygon class="fil1" points="1263,846 1621,706 347,534 "/>
  <path class="fil3" d="M567 562l0 30 -77 -20c26,5 52,3 77,-10zm533 105l0 62 -36 -9 0 -94c12,14 23,28 36,41zm25 68l0 -43c29,27 60,50 94,67l-94 -24zm-85 -141c0,48 0,70 0,119l-36 -9 0 -163c11,18 23,35 36,53zm-61 -94c0,83 0,114 0,198l-36 -9 0 -259c10,21 20,42 32,62 1,3 3,5 4,8zm-60 -123c0,115 0,189 0,305l-37 -9 0 -396c11,34 23,67 37,100zm-60 -176l0 466 -18 -5 0 -199 -13 -17 0 -165c0,-5 -6,-11 -6,-16l0 -138 -4 -10 0 -82c12,56 26,111 41,166zm12 4c20,62 43,123 70,181 73,156 169,270 326,342l0 44 0 0 0 156 -897 -364 0 56c-10,-1 -24,-2 -38,-1l0 -70 -59 -24 1 -8 0 0c27,-14 33,-27 44,-55 10,-23 16,-48 21,-72l0 -16 3 -8 0 -22 20 -2 3 2 0 31 0 4c3,19 6,37 11,56 6,24 14,45 26,64 0,0 0,0 0,0 0,0 0,1 0,1 3,5 7,10 11,15 12,17 31,36 52,42 7,2 15,5 23,6 23,4 45,3 67,-10 32,-18 52,-46 73,-74 34,-56 60,-115 80,-175l0 -1 1 -1c27,-80 45,-165 61,-248l-1 -40 27 -8 22 6 0 3c16,54 33,127 53,190zm-136 430l0 -171 13 -18 0 -163 9 -17 0 -90c-5,24 -11,48 -18,71 -4,16 -9,32 -14,47l0 339 10 2zm-27 -291l0 284 -20 -5c0,-87 0,-143 0,-229 7,-17 14,-33 20,-50zm-35 83c0,71 0,115 0,192l-22 -6c0,-59 0,-85 0,-144 7,-14 15,-28 22,-42zm-36 65c0,47 0,66 0,118l-24 -6c0,-35 0,-46 0,-81 8,-9 15,-19 24,-30 0,0 0,-1 0,-1zm-35 43c0,25 0,38 0,66l-26 -7 0 -38c1,0 2,-1 3,-1 9,-6 16,-13 23,-20zm-131 32l-50 -12 0 -18c11,10 23,19 36,25 5,2 9,4 14,5zm-56 -14l-13 -3c0,-12 0,-24 0,-36 1,1 1,1 2,2 3,5 7,10 11,15l0 22zm-19 -5l-14 -4 0 -69c4,10 9,20 14,30 0,14 0,29 0,43zm-18 -5l-8 -2 0 -73c0,-3 -3,-6 -3,-8l0 -41c1,5 2,10 3,14 2,10 5,20 8,30l0 80zm-46 -11l-4 -1 0 -86 0 0c5,-15 8,-30 11,-45l0 13 -3 6 0 42 -4 7 0 64zm-6 -2l-4 -1c0,-22 0,-44 0,-67 2,-3 3,-7 4,-10l0 78zm-6 -2l-4 0c0,-17 0,-34 0,-51 1,-3 3,-6 4,-9 0,20 0,40 0,60zm-6 -1l-4 -1c0,-13 0,-25 0,-37 1,-3 2,-5 4,-7 0,15 0,30 0,45zm-7 -2l-3 -1c0,-9 0,-17 0,-26 1,-2 2,-4 3,-6 0,11 0,22 0,33zm-6 -1l-4 -1c0,-6 0,-12 0,-18 2,-1 3,-3 4,-4 0,7 0,15 0,23zm-6 -2l-4 -1 0 -10 0 0c1,-2 3,-3 4,-4 0,5 0,10 0,15zm-6 -2l-12 -2c4,-2 8,-3 12,-6l0 8zm76 -116l0 8 2 4c-1,-4 -2,-8 -2,-12z"/>
 </g>
</svg>
