<?xml version="1.0" encoding="utf-8"?>
<!-- Generator: Adobe Illustrator 16.0.0, SVG Export Plug-In . SVG Version: 6.00 Build 0)  -->
<!DOCTYPE svg PUBLIC "-//W3C//DTD SVG 1.1//EN" "http://www.w3.org/Graphics/SVG/1.1/DTD/svg11.dtd">
<svg version="1.1" id="Слой_1" xmlns="http://www.w3.org/2000/svg" xmlns:xlink="http://www.w3.org/1999/xlink" x="0px" y="0px"
	 width="599.978px" height="441.811px" viewBox="0.455 88.009 599.978 441.811"
	 enable-background="new 0.455 88.009 599.978 441.811" xml:space="preserve">
<path fill="#FFFFFF" d="M0.455,496.561v30.046h9.26V505.63c0-0.943-0.378-1.891-0.378-2.269c0-0.187,0-0.377,0.188-0.377
	c0.19,0,0.568,0.947,0.945,1.325l11.528,22.297h7.559l10.772-22.297c0.189-0.57,0.567-1.325,0.945-1.325c0.188,0,0.188,0,0.188,0.19
	c0,0.564-0.378,1.512-0.378,2.269v20.975h9.26V496.37H34.469l-7.936,16.821c-0.189,0.563-0.378,3.588-0.756,3.588
	c-0.377,0-0.564-3.024-0.753-3.588l-7.939-16.821H0.455V496.561z M98.153,511.679c0-14.363-0.567-15.495-19.843-15.495
	c-19.272,0-19.84,1.132-19.84,15.495c0,14.36,0.378,15.494,19.84,15.494C97.775,527.173,98.153,526.039,98.153,511.679z
	 M67.541,511.679c0-7.747,0-7.747,10.581-7.747c10.583,0,10.583,0,10.583,7.747c0,7.557,0,7.748-10.583,7.748
	C67.541,519.235,67.541,519.235,67.541,511.679z M121.963,496.184c-17.385,0-18.331,1.32-18.331,15.495
	c0,14.173,0.945,15.494,18.331,15.494c17.952,0,18.519-1.701,18.519-11.904h-9.259c0,3.591-0.945,4.158-9.26,4.158
	c-9.071,0-9.071-0.191-9.071-7.748c0-7.369,0-7.747,9.071-7.747c8.503,0,9.26,0.941,9.26,4.155h9.259
	C140.482,497.883,139.726,496.184,121.963,496.184z M147.474,504.31h13.229v22.297h9.257V504.31h13.229v-7.749h-35.716V504.31z
	 M230.809,511.679c0-14.363-0.567-15.495-19.84-15.495c-19.464,0-19.843,1.132-19.843,15.495c0,14.36,0.378,15.494,19.843,15.494
	C230.241,526.985,230.809,526.039,230.809,511.679z M200.197,511.679c0-7.747,0-7.747,10.583-7.747c10.58,0,10.58,0,10.58,7.747
	c0,7.557,0,7.748-10.58,7.748C200.197,519.235,200.197,519.235,200.197,511.679z M277.296,511.679
	c0-14.363-0.567-15.495-19.843-15.495c-19.462,0-19.84,1.132-19.84,15.495c0,14.36,0.378,15.494,19.84,15.494
	C276.918,526.985,277.296,526.039,277.296,511.679z M246.87,511.679c0-7.747,0-7.747,10.583-7.747s10.583,0,10.583,7.747
	c0,7.557,0,7.748-10.583,7.748C246.87,519.235,246.87,519.235,246.87,511.679z M284.288,504.31h13.229v22.297h9.257V504.31h13.229
	v-7.749h-35.905v7.749H284.288z M328.129,496.561v30.046h9.26v-7.371h13.415c9.071,0,12.852-1.133,12.852-11.338
	c0-10.394-3.78-11.337-12.852-11.337H328.129z M337.389,511.487v-7.178h13.415c1.891,0,3.592,0.756,3.592,3.588
	c0,2.833-1.513,3.59-3.592,3.59H337.389z M405.229,496.561h-26.835c-4.911,0-9.259,1.133-9.259,8.691
	c0,5.102,1.134,7.369,4.158,8.503c-3.214,1.323-4.158,2.269-4.158,6.049v6.614h9.259v-5.294c0-1.32,0.757-3.021,3.024-3.021h14.551
	v8.504h9.26V496.561z M395.969,504.31v6.044H381.04c-1.89,0-2.835-0.754-2.835-3.023c0-2.265,0.945-3.021,2.835-3.021H395.969z
	 M413.164,518.856h-1.7v10.964h9.259v-1.325c0-1.322,0.567-1.889,2.079-1.889h18.707c1.512,0,1.89,0.566,1.89,1.889v1.325h9.26
	v-10.964h-2.269v-22.296h-34.768C415.811,515.269,414.677,518.856,413.164,518.856z M441.13,518.856h-18.142
	c0.945-0.943,1.891-6.235,1.891-14.547h16.251V518.856z M509.915,526.606v-30.046h-13.983l-10.771,9.636l4.915,6.238l9.071-8.125
	h1.51v22.297H509.915z M541.475,508.844c-11.906,0.566-17.952,2.266-17.952,8.692v9.26h34.581v-7.748h-25.321
	c0-2.079,0.567-2.269,8.692-2.835c13.415-0.757,17.007-1.512,17.007-10.77c0-7.939-1.889-9.26-17.007-9.26
	c-16.254,0-17.385,0.565-17.385,11.336h8.881c0-3.21,0-3.588,8.692-3.588c8.505,0,8.505,0.187,8.505,2.454
	C549.789,508.466,548.844,508.466,541.475,508.844z M579.646,508.087v6.614h3.592c8.692,0,8.692,0,8.692,2.268
	c0,2.079,0,2.267-8.692,2.267c-8.315,0-8.315,0-8.315-3.779h-8.692v3.779c0,7.371,5.857,7.75,16.818,7.75
	c15.874,0,17.385-1.323,17.385-9.827c0-3.403-0.944-5.101-3.401-5.671c1.511-0.757,3.024-2.454,3.024-5.857
	c0-7.56-1.134-9.446-17.008-9.446c-10.961,0-16.818,0.377-16.818,7.748v3.398h8.692c0-3.398,0-3.398,8.315-3.398
	c8.313,0,8.313,0,8.313,2.077c0,2.078,0,2.078-8.313,2.078H579.646L579.646,508.087z"/>
<g>
	<path fill="#A6A39D" d="M315.278,398.297c-48.943,0.188-97.696,0.188-146.638,0c-3.402-0.757-6.616-1.513-10.016-2.27
		c57.257-0.944,114.514-1.701,171.773-1.322C325.482,396.027,320.571,397.163,315.278,398.297z"/>
	<g>
		<polygon fill="#FFFFFF" points="244.226,100.67 256.508,100.859 268.982,101.426 281.074,102.37 292.98,103.882 304.698,105.583 
			316.223,107.662 327.562,110.119 338.523,112.953 349.292,115.976 359.875,119.377 370.079,123.156 379.906,127.315 
			389.356,131.66 398.615,136.195 407.496,141.108 416,146.4 423.934,151.691 431.684,157.36 439.054,163.218 445.856,169.455 
			452.091,175.69 458.137,182.305 463.431,189.107 468.342,195.91 472.879,203.092 476.656,210.461 480.059,217.831 
			482.705,225.389 484.972,233.138 486.484,241.074 487.429,249.01 487.807,257.136 487.429,265.262 486.484,273.199 
			484.972,280.946 482.705,288.695 480.059,296.253 476.656,303.812 472.879,310.992 468.342,318.172 463.431,325.164 
			458.137,331.969 452.091,338.394 445.856,344.817 439.054,350.867 431.684,356.724 423.934,362.392 416,367.874 407.496,372.975 
			398.615,377.889 389.356,382.612 379.906,386.957 370.079,390.927 359.875,394.705 349.292,398.107 338.523,401.318 
			327.562,404.153 316.223,406.423 304.698,408.688 292.98,410.392 281.074,411.712 268.982,412.658 256.508,413.225 
			244.226,413.603 231.754,413.225 219.282,412.658 207.188,411.712 195.284,410.392 183.567,408.688 172.039,406.423 
			160.703,404.153 149.742,401.318 138.97,398.107 128.387,394.705 118.184,390.927 108.358,386.957 98.91,382.612 89.649,377.889 
			80.768,372.975 72.264,367.874 64.138,362.392 56.581,356.724 49.211,350.867 42.406,344.817 36.171,338.394 30.125,331.969 
			24.835,325.164 19.92,318.172 15.574,310.992 11.605,303.812 8.391,296.253 5.559,288.695 3.29,280.946 1.778,273.199 
			0.833,265.262 0.455,257.136 0.833,249.01 1.778,241.074 3.29,233.138 5.559,225.389 8.391,217.831 11.605,210.461 
			15.574,203.092 19.92,195.91 24.835,189.107 30.125,182.305 36.171,175.69 42.406,169.455 49.211,163.218 56.581,157.36 
			64.138,151.691 72.264,146.4 80.768,141.108 89.649,136.195 98.91,131.66 108.358,127.315 118.184,123.156 128.387,119.377 
			138.97,115.976 149.742,112.953 160.703,110.119 172.039,107.662 183.567,105.583 195.284,103.882 207.188,102.37 
			219.282,101.426 231.754,100.859 		"/>
		<path fill="#154F98" d="M244.226,102.559c133.222,0,241.879,69.353,241.879,154.578c0,85.035-108.657,154.576-241.879,154.576
			c-133.225,0-241.881-69.541-241.881-154.576C2.345,171.911,111.002,102.559,244.226,102.559z"/>
		<path fill="#A6A39D" d="M317.924,115.976c-49.132,0.189-98.074,0.189-147.208,0c6.427-1.323,12.851-2.456,19.464-3.59
			c36.094-0.567,72.188-0.567,108.279,0C305.075,113.52,311.499,114.653,317.924,115.976z"/>
		<path fill="#A6A39D" d="M366.299,130.527l-243.958-0.189c1.322-0.567,2.646-1.134,4.158-1.512
			c78.231-2.267,157.031-1.134,235.266,0C363.277,129.393,364.979,129.96,366.299,130.527z"/>
		<path fill="#A6A39D" d="M397.67,145.455c-102.422,1.89-204.465,0.567-306.886-0.189c0.378-0.189,0.945-0.567,1.323-0.755
			c101.098-1.512,201.629-1.89,302.728-0.756C395.78,144.322,396.725,144.888,397.67,145.455z"/>
		<path fill="#A6A39D" d="M420.723,160.384c-34.771,0.189-319.923-0.377-352.806-0.377c0.378-0.189,0.756-0.568,1.134-0.756
			c117.352-1.324,232.244-1.701,349.403-0.567C419.211,159.25,419.967,159.817,420.723,160.384z"/>
		<path fill="#A6A39D" d="M432.626,175.123l-377.748-0.378l0.567-0.944c125.665-1.701,250.95-2.268,376.425-0.378L432.626,175.123z"
			/>
		<path fill="#A6A39D" d="M442.075,188.541l0.189,1.323c-132.277,3.59-263.798,2.078-396.079,0h-1.323l0.377-0.378
			C68.862,188.919,440.564,185.328,442.075,188.541z"/>
		<path fill="#A6A39D" d="M451.524,203.092l0.567,1.51c-33.825,0.567-412.329-1.699-416.487,0.757v-1.134
			C174.497,201.579,312.823,200.256,451.524,203.092z"/>
		<path fill="#A6A39D" d="M462.674,220.099l-0.567-0.567c-147.771,3.401-288.745,2.645-436.708-0.189
			c142.863-2.646,283.455-3.591,426.503-0.945C455.305,218.208,459.838,217.641,462.674,220.099z"/>
		<path fill="#A6A39D" d="M471.745,233.327c-0.379,0.565,0.755,0.943,0.755,1.322c-151.174,3.402-302.351,2.268-453.526-0.567
			c1.891,0,3.591-1.322,5.671-1.322C174.874,229.924,321.326,229.924,471.745,233.327z"/>
		<path fill="#A6A39D" d="M476.28,247.876c-167.048,7.18-303.673,7.37-457.494,0.945C87.003,247.121,433.572,247.688,476.28,247.876
			C476.28,247.688,476.28,247.688,476.28,247.876z"/>
		<path fill="#A6A39D" d="M476.656,264.128c-153.818,3.401-303.483,2.457-457.682-0.378l0,0
			c156.657-3.59,302.352-3.779,457.682-0.376C476.656,263.562,476.656,263.939,476.656,264.128z"/>
		<path fill="#A6A39D" d="M474.202,279.057c-153.065,2.835-301.596,1.7-455.417-0.566l0,0
			c154.009-3.213,302.351-3.213,455.603-0.568C474.389,278.49,474.389,278.867,474.202,279.057z"/>
		<path fill="#A6A39D" d="M469.476,293.984c-169.315,3.403-274.38,3.025-450.69-0.566c174.987-3.401,283.454-3.591,451.069-0.566
			C469.855,293.229,469.665,293.606,469.476,293.984z"/>
		<path fill="#A6A39D" d="M462.296,308.914c-145.695,2.268-290.635,2.078-436.52-0.566v-0.189
			c148.531-3.401,290.636-3.213,437.275-0.567C462.674,307.969,462.486,308.536,462.296,308.914z"/>
		<path fill="#A6A39D" d="M35.604,322.898c140.216-2.457,277.597-2.647,417.622-0.567c-0.378,0.567-0.757,0.942-1.135,1.512
			c-139.269,1.891-276.46,1.891-416.109-0.569C35.793,323.273,35.604,323.087,35.604,322.898z"/>
		<path fill="#A6A39D" d="M438.675,338.582c-130.012,1.512-259.267,1.891-389.275-0.378c-0.189-0.189-0.378-0.378-0.567-0.567
			c131.143-2.079,260.398-2.268,391.354-0.567C439.62,337.637,439.054,338.204,438.675,338.582z"/>
		<path fill="#A6A39D" d="M65.652,352.378c119.617-1.89,238.101-2.081,357.529-0.377c-0.757,0.564-1.323,0.941-2.079,1.51
			c-118.106,1.134-236.211,1.511-354.127-0.189C66.596,352.942,66.029,352.754,65.652,352.378z"/>
		<path fill="#A6A39D" d="M87.76,367.117c104.689-1.326,208.812-1.701,313.5-0.378c-1.891,1.135-3.968,2.269-6.047,3.399
			c-86.737,0.567-229.219-0.944-305.185-1.7C89.272,367.874,88.515,367.495,87.76,367.117z"/>
		<path fill="#A6A39D" d="M366.299,383.747c-81.634,0.564-163.078,0.378-244.714-0.192c-0.945-0.378-2.079-0.756-3.022-1.32
			c84.47-0.567,168.56-1.323,253.218-0.757C369.89,382.234,368,382.99,366.299,383.747z"/>
		<path fill="#154F98" d="M217.96,348.784l145.695,58.394l125.097-56.689v-45.165l-161.946-9.259
			C295.438,323.843,252.73,336.881,217.96,348.784z"/>
		<polygon fill="#B2B3B3" points="67.352,268.853 68.295,270.553 182.244,307.213 184.323,300.41 		"/>
		<path fill="#FEFEFE" d="M201.709,98.402l12.66-2.645l3.402,10.016v20.786l1.512,3.401v45.542c0,1.701,1.7,3.59,1.7,5.48v54.612
			l4.537,5.48v76.342H190.37v-76.153l4.537-5.859V181.36l3.021-5.48v-44.975l2.08-4.158v-11.338l2.268-5.479L201.709,98.402z"/>
		<path fill="#FFFFFF" d="M239.123,149.991c0,0.189-0.188,0.378-0.188,0.567c-3.589,9.26-7.37,18.519-11.148,27.59
			c5.479-0.378,10.203-1.701,13.227-7.559C242.337,167.943,243.093,153.581,239.123,149.991z M35.036,259.781l5.293-0.756
			l1.701,0.189c9.068-3.779,11.526-8.125,16.44-17.007c3.589-6.236,6.424-12.85,9.071-19.463l-5.859,0.188l0.756-3.023
			c1.701-0.188,3.591-0.188,5.293-0.567c0.564-0.189,1.131-0.567,1.698-1.323c0.567-1.512,1.134-3.023,1.701-4.347
			c0.378-2.456-0.188-4.725-2.079-4.725l-6.802-0.377l-0.567-3.591l10.771-0.378v-2.834l4.723-1.134l1.324,1.134v6.425
			c1.89,5.292,3.969,10.205,6.424,15.307c3.402,6.614,6.994,13.229,11.339,19.275c7.937,10.96,21.166,22.109,35.905,25.888
			l12.092,1.324c4.915-0.189,9.827-1.512,14.553-4.158c11.336-6.047,19.651-14.551,27.59-24.565c2.833-3.59,5.479-7.371,8.126-10.96
			v5.48l-4.537,5.858v3.401c-0.567,0.756-1.324,1.512-1.891,2.267c-10.013,12.094-20.596,20.598-32.125,24.189l34.015,3.589v25.134
			L79.445,271.687v16.063l-10.016-0.567v-18.142L35.036,259.781z M220.039,178.336c0.755,0,1.32,0,2.077,0
			c3.78-8.314,7.183-16.63,10.394-25.133c0.567-1.322,0.945-2.646,1.512-3.779l-14.928,0.377v-7.936
			c4.913-0.567,11.147-1.324,14.928-1.512c9.638-0.566,14.172-28.723,3.214-27.778l-17.763,1.889l-2.458-12.283l39.305-1.322
			l1.701-10.961l3.214-1.889l8.503,1.889v3.403c1.512,10.015,3.589,19.841,6.235,29.479c5.479,19.463,13.983,38.171,24.188,55.368
			c14.361,23.621,31.746,44.029,52.912,61.604c37.795,31.181,87.302,47.81,135.301,54.612v54.421L362.71,406.233l0.566-61.605
			l-137.947-35.714V278.49l22.864,2.456v-54.423l-27.399,0.945v-12.093c4.913-0.378,11.715-0.945,15.306-2.08
			c3.967-1.322,6.236-13.039,6.046-16.629c-0.567-11.716-9.638-10.771-18.33-10.393c-0.945,2.267-2.08,4.534-3.022,6.613v-11.905
			C220.985,180.037,220.606,179.281,220.039,178.336z M43.54,259.403l26.078,2.646v-10.205h-6.046l-0.567-4.535
			c1.702-0.189,3.591,0,5.291-0.567c0.567-0.188,0.944-0.566,1.323-1.322v-5.103l0.756-1.512c-1.135-2.834-4.534-2.078-7.37-2.078
			C58.093,247.688,51.666,257.326,43.54,259.403z M79.634,263.184l3.78,0.377v-39.873l0,0c-0.189-0.378-0.189-0.567-0.377-0.945
			c-1.702-4.158-3.403-8.504-4.727-12.661v12.661l0.567,1.512v13.228c0,0.755,0.567,1.7,0.567,2.457v23.244H79.634z M84.738,263.75
			l2.833,0.189c0-10.582,0-21.165,0-31.747c-0.945-1.89-1.89-3.779-2.833-5.669V263.75z M88.705,264.128l2.835,0.188
			c0-8.503,0-16.818,0-25.321c-0.945-1.511-1.891-3.023-2.835-4.725C88.705,244.287,88.705,254.302,88.705,264.128z M92.863,264.506
			l2.644,0.189c0-6.614,0-13.039,0-19.652c-0.756-0.945-1.324-1.891-2.079-2.835c-0.189-0.377-0.565-0.566-0.754-0.944
			C92.863,249.01,92.863,256.758,92.863,264.506z M96.83,264.883l2.646,0.189c0-5.103,0-10.014,0-15.117
			c-0.945-1.134-1.891-2.079-2.646-3.213C96.83,252.979,96.83,259.025,96.83,264.883z M100.989,265.451l2.644,0.189
			c0-3.78,0-7.559,0-11.338c-0.945-0.945-1.702-1.701-2.644-2.646C100.989,256.38,100.989,260.916,100.989,265.451z
			 M104.955,265.829l2.458,0.189c0-2.645,0-5.292,0-8.125c-0.945-0.756-1.701-1.512-2.458-2.269
			C104.955,259.214,104.955,262.428,104.955,265.829z M109.115,266.207l2.454,0.188c0-1.701,0-3.59,0-5.292
			c-0.755-0.567-1.698-1.323-2.454-1.89C109.115,261.672,109.115,263.939,109.115,266.207z M113.27,266.774l2.458,0.189v-3.024
			c-0.756-0.566-1.702-0.944-2.458-1.511C113.27,263.75,113.27,265.262,113.27,266.774z M117.24,267.152l5.29,0.565
			c-1.702-0.754-3.403-1.7-5.29-2.645l0,0V267.152z M277.485,283.971l4.534,0.565V153.392c-3.777-9.636-7.18-19.463-10.202-29.479
			v33.447l1.699,5.48v41.952l3.78,6.614v72.565H277.485z M289.766,285.292l12.285,1.323c0-35.338,0-58.77,0-92.973
			c-4.534-7.369-8.504-14.929-12.285-22.677V285.292z M309.988,287.371l12.095,1.324c0-27.023,0-39.117,0-66.896
			c-4.348-5.102-8.314-10.582-12.095-16.062V287.371z M330.019,289.45l11.904,1.322c0-18.331,0-28.912,0-47.998
			c-4.157-3.779-8.126-7.748-11.904-11.905V289.45z M350.238,291.718l11.717,1.322v-34.202c-4.158-2.836-8.126-5.858-11.717-8.693
			V291.718z M370.269,293.796l17.196,1.701v-20.976c-5.857-3.401-11.717-6.804-17.196-10.394V293.796z M395.78,296.442l53.099,5.479
			c-17.572-5.668-35.902-13.793-53.099-22.864V296.442z M64.328,233.704c1.512-3.59,2.835-7.37,4.156-10.959h0.188
			c2.269,0,2.079,6.991,1.512,8.125C68.673,233.893,66.974,233.704,64.328,233.704z"/>
		<path fill="#FFFFFF" d="M244.226,114.464c122.829,0,222.982,64.062,222.982,142.672c0,21.354-7.559,41.762-20.785,60.094
			l13.794,1.887c13.418-18.896,20.787-39.871,20.787-61.981c0-83.335-106.39-151.363-236.778-151.363
			c-8.692,0-17.195,0.376-25.699,0.943c0.755,2.836,1.512,5.67,2.268,8.693C228.543,114.842,236.29,114.464,244.226,114.464z
			 M418.454,345.952c-15.494,12.283-34.014,23.056-54.988,31.746v10.204c34.393-12.851,63.492-31.179,83.902-53.101L418.454,345.952
			z M340.221,385.823c-29.1,8.882-61.602,13.983-95.995,13.983c-122.83,0-222.984-64.06-222.984-142.67
			c0-68.029,75.398-125.287,175.363-139.27c0-0.378,0.188-0.755,0.188-0.945v-1.134l0.378-0.945
			c0.378-2.077,0.756-4.157,1.134-6.046C89.649,122.591,7.449,184.005,7.449,257.326c0,83.333,106.388,151.362,236.777,151.362
			c39.495,0,76.722-6.235,109.414-17.193L340.221,385.823z M217.77,115.598c0.19,0,0.378,0,0.568,0
			c-0.189-0.944-0.378-1.699-0.568-2.645V115.598z"/>
		<polygon fill="#154F98" points="361.954,367.874 480.438,321.764 58.848,264.695 		"/>
		<path fill="#A6A39D" d="M131.601,273.954v10.017l-25.511-6.615C114.971,279.057,123.286,278.301,131.601,273.954z
			 M307.908,308.725v20.598l-11.715-3.024v-30.801C299.971,299.844,303.941,304.379,307.908,308.725z M316.412,331.401v-14.363
			c9.448,8.882,19.842,16.63,30.991,22.3L316.412,331.401z M288.068,284.536c0,15.874,0,23.055,0,39.494l-11.906-3.022v-53.855
			C279.754,272.82,283.721,278.867,288.068,284.536z M268.036,253.546c0,27.4,0,37.793,0,65.382l-12.095-3.024v-85.413
			c3.214,6.804,6.805,13.606,10.583,20.409C267.091,251.656,267.469,252.601,268.036,253.546z M248.194,212.728
			c0,38.172,0,62.55,0,101.1l-12.281-3.024V179.848C239.69,190.809,243.659,201.958,248.194,212.728z M228.165,154.526v154.199
			l-5.86-1.512v-65.95l-4.535-5.48v-54.611c0-1.891-1.701-3.591-1.701-5.481v-45.541l-1.512-3.402V99.536
			C218.716,118.055,223.061,136.385,228.165,154.526z M232.321,156.038c6.424,20.219,13.985,40.438,23.054,59.714
			c24.379,51.777,55.937,89.571,107.902,113.192v14.553l0,0v51.775L66.407,274.711v18.518c-3.402-0.378-7.747-0.754-12.473-0.378
			v-23.053l-19.465-7.937l0.19-2.835h0.188c8.693-4.533,10.583-8.881,14.363-17.951c3.211-7.749,5.101-15.875,6.992-24v-5.102
			l1.134-2.646l-0.188-7.369l6.613-0.756l0.945,0.756v10.205l0.188,1.132c0.945,6.426,1.891,12.472,3.589,18.708
			c2.079,7.748,4.725,14.739,8.692,21.354l0,0l0,0c1.134,1.7,2.268,3.401,3.403,5.103c4.158,5.479,10.205,11.715,17.196,13.604
			c2.457,0.756,4.912,1.702,7.559,2.08c7.747,1.323,15.117,0.944,22.297-3.212c10.583-5.859,17.196-15.118,24.19-24.566
			c11.147-18.52,19.651-37.984,26.267-57.637v-0.378l0.189-0.189c9.068-26.645,14.928-54.611,20.407-82.201l-0.189-13.038
			l8.881-2.646l6.992,1.891v0.944C219.85,110.874,225.707,135.063,232.321,156.038z M187.156,298.143v-56.69l4.537-5.858v-54.045
			l3.024-5.48v-29.857c-1.89,7.936-3.78,15.873-6.049,23.622c-1.512,5.29-3.021,10.393-4.533,15.495v112.06L187.156,298.143z
			 M178.277,201.768v94.107l-6.616-1.701c0-28.534,0-47.431,0-75.776C173.93,212.917,176.198,207.249,178.277,201.768z
			 M166.56,229.169c0,23.81,0,38.359,0,63.682l-7.369-1.891c0-19.841,0-28.344,0-47.809
			C161.835,238.617,164.292,233.893,166.56,229.169z M155.032,250.71c0,15.497,0,21.921,0,39.117l-7.937-2.077
			c0-11.528,0-15.308,0-26.834c2.646-3.023,4.915-6.424,7.748-9.827C154.843,251.089,154.843,250.9,155.032,250.71z
			 M143.318,265.073c0,8.314,0,12.283,0,21.732l-8.693-2.269v-12.472c0.189-0.187,0.567-0.377,0.756-0.565
			C138.592,269.608,141.049,267.529,143.318,265.073z M100.044,275.845l-16.629-4.346v-5.858c3.4,3.401,7.37,6.237,11.903,8.125
			C96.83,274.521,98.342,275.277,100.044,275.845z M81.335,271.12l-4.347-1.134c0-3.968,0-7.748,0-11.715
			c0.188,0.188,0.377,0.377,0.377,0.565c1.135,1.701,2.457,3.403,3.781,4.914v7.371H81.335z M75.288,269.419l-4.725-1.324v-23.053
			c1.323,3.401,2.835,6.802,4.725,9.827C75.288,259.97,75.288,264.695,75.288,269.419z M69.051,267.718l-2.644-0.754v-24.378
			c0-0.944-0.755-1.699-0.755-2.645v-13.417c0.188,1.512,0.567,3.212,0.944,4.724c0.756,3.402,1.51,6.615,2.644,9.639v26.832H69.051
			z M53.934,263.939l-1.134-0.378v-28.345h-0.188c1.512-4.913,2.646-9.827,3.591-14.739v4.158l-0.945,1.889v13.984l-1.323,2.645
			V263.939L53.934,263.939z M52.044,263.373l-1.321-0.378c0-7.371,0-14.74,0-22.109c0.376-1.135,0.943-2.269,1.321-3.591V263.373z
			 M49.778,262.806l-1.323-0.378c0-5.48,0-11.15,0-16.629c0.378-0.945,0.945-1.891,1.323-2.835
			C49.778,249.578,49.778,256.38,49.778,262.806z M47.888,262.428l-1.323-0.378c0-4.157,0-8.314,0-12.282
			c0.378-0.757,0.945-1.512,1.323-2.269C47.888,252.412,47.888,257.326,47.888,262.428z M45.809,261.86l-1.324-0.378
			c0-2.834,0-5.858,0-8.693c0.378-0.567,0.756-1.134,1.324-1.701C45.809,254.492,45.809,258.271,45.809,261.86z M43.729,261.293
			l-1.323-0.378c0-1.891,0-3.968,0-5.859c0.378-0.376,0.945-0.943,1.323-1.322C43.729,256.191,43.729,258.838,43.729,261.293z
			 M41.653,260.727l-1.324-0.378v-3.591l0,0c0.378-0.377,0.945-0.756,1.324-1.134C41.653,257.514,41.653,259.214,41.653,260.727z
			 M39.573,260.349l-3.78-0.945c1.324-0.378,2.646-0.944,3.78-1.889V260.349z M64.895,221.799v2.646l0.567,1.133
			C65.084,224.256,64.895,223.122,64.895,221.799z"/>
	</g>
</g>
</svg>
